HIERARCHY
ROOT Hips
{
	OFFSET 0.000000 88.474243 0.000000
	CHANNELS 6 Xposition Yposition Zposition Zrotation Yrotation Xrotation 
	JOINT Hips_Spine
	{
		OFFSET 0.000000 0.000000 0.000000
		CHANNELS 3 Zrotation Yrotation Xrotation
		JOINT Spine
		{
			OFFSET 0.005100 8.711998 -0.691000
			CHANNELS 3 Zrotation Yrotation Xrotation
			JOINT Spine1
			{
				OFFSET -0.009200 8.660301 -1.275000
				CHANNELS 3 Zrotation Yrotation Xrotation
				JOINT Spine2
				{
					OFFSET 0.006300 9.852501 -1.857000
					CHANNELS 3 Zrotation Yrotation Xrotation
					JOINT Spine2_Neck
					{
						OFFSET 0.000000 0.000000 0.000000
						CHANNELS 3 Zrotation Yrotation Xrotation
						JOINT Neck
						{
							OFFSET 0.016300 11.420799 -0.263300
							CHANNELS 3 Zrotation Yrotation Xrotation
							End Site #name: Head
							{
								OFFSET -0.019200 9.262405 2.362500
							}
						}
					}
					JOINT Spine2_LeftShoulder
					{
						OFFSET 0.000000 0.000000 0.000000
						CHANNELS 3 Zrotation Yrotation Xrotation
						JOINT LeftShoulder
						{
							OFFSET 5.616900 6.732201 -0.345700
							CHANNELS 3 Zrotation Yrotation Xrotation
							JOINT LeftArm
							{
								OFFSET 10.664888 -0.183372 -2.440700
								CHANNELS 3 Zrotation Yrotation Xrotation
								JOINT LeftForeArm
								{
									OFFSET 27.459126 0.000000 0.000000
									CHANNELS 3 Zrotation Yrotation Xrotation
									End Site #name: LeftHand
									{
										OFFSET 21.306858 0.000000 0.000000
									}
								}
							}
						}
					}
					JOINT Spine2_RightShoulder
					{
						OFFSET 0.000000 0.000000 0.000000
						CHANNELS 3 Zrotation Yrotation Xrotation
						JOINT RightShoulder
						{
							OFFSET -5.580300 6.737503 -0.344400
							CHANNELS 3 Zrotation Yrotation Xrotation
							JOINT RightArm
							{
								OFFSET -10.679335 -0.188484 -2.383900
								CHANNELS 3 Zrotation Yrotation Xrotation
								JOINT RightForeArm
								{
									OFFSET -27.503529 0.000000 0.000000
									CHANNELS 3 Zrotation Yrotation Xrotation
									End Site #name: RightHand
									{
										OFFSET -21.306808 0.000000 0.000000
									}
								}
							}
						}
					}
				}
			}
		}
	}
	JOINT Hips_LeftUpLeg
	{
		OFFSET 0.000000 0.000000 0.000000
		CHANNELS 3 Zrotation Yrotation Xrotation
		JOINT LeftUpLeg
		{
			OFFSET 6.857700 -6.739601 0.312100
			CHANNELS 3 Zrotation Yrotation Xrotation
			JOINT LeftLeg
			{
				OFFSET -0.367590 -34.731552 -4.572400
				CHANNELS 3 Zrotation Yrotation Xrotation
				End Site #name: LeftFoot
				{
					OFFSET 0.367590 -34.656704 -6.067400
				}
			}
		}
	}
	JOINT Hips_RightUpLeg
	{
		OFFSET 0.000000 0.000000 0.000000
		CHANNELS 3 Zrotation Yrotation Xrotation
		JOINT RightUpLeg
		{
			OFFSET -6.876100 -6.733299 0.301000
			CHANNELS 3 Zrotation Yrotation Xrotation
			JOINT RightLeg
			{
				OFFSET 0.347353 -34.795158 -4.515900
				CHANNELS 3 Zrotation Yrotation Xrotation
				End Site #name: RightFoot
				{
					OFFSET -0.347353 -34.589367 -6.070300
				}
			}
		}
	}
}
MOTION
Frames: 14
Frame Time: 0.041667
-0.056754 -0.822739 -3.810554 -10.602116 11.743531 -6.076738 0.000000 0.000000 0.000000 4.677943 -5.347422 -2.073426 1.713768 -0.724523 -0.010246 0.000000 0.000000 0.000000 1.711277 -0.731002 0.000533 0.265366 -1.355072 -6.669358 1.711277 -0.731002 0.000533 -26.334574 -9.039673 4.070153 -13.458992 -17.804031 -23.013279 0.000012 -17.070565 0.000000 1.711277 -0.731002 0.000533 13.967267 8.111989 2.424800 24.928394 1.981535 -1.602489 -0.000000 23.160808 0.000002 0.000000 0.000000 0.000000 9.636570 17.070280 -20.467451 1.968369 10.552285 32.396187 0.000000 0.000000 0.000000 7.346083 -10.081735 -13.325620 -1.440409 -9.023665 22.257864 
0.085533 -1.018273 -4.376739 -10.224761 11.757311 -6.143527 0.000000 0.000000 0.000000 4.336759 -5.363499 -1.678963 1.680948 -0.728551 0.026764 0.000000 0.000000 0.000000 1.678970 -0.734772 0.038480 0.156587 -1.319728 -6.566080 1.678970 -0.734772 0.038480 -26.657575 -9.308368 4.196780 -15.777398 -18.451029 -23.361435 -0.000009 -18.992173 -0.000011 1.678970 -0.734772 0.038480 13.969327 8.430005 2.492125 27.176744 3.379437 -0.970670 0.000009 23.569857 0.000002 0.000000 0.000000 0.000000 9.563219 17.433917 -20.175628 1.445646 10.886138 32.140834 0.000000 0.000000 0.000000 6.643855 -10.448845 -14.543725 -1.440943 -9.018008 24.174961 
0.341405 -1.334366 -5.066490 -8.956390 11.475545 -6.334348 0.000000 0.000000 0.000000 3.056799 -5.026443 -0.655695 1.593496 -0.681374 -0.053521 0.000000 0.000000 0.000000 1.593466 -0.685295 -0.041547 0.024408 -1.288567 -6.535657 1.593466 -0.685295 -0.041547 -26.693047 -9.532229 4.274869 -18.964912 -18.920613 -22.889893 -0.000006 -22.410939 -0.000008 1.593466 -0.685295 -0.041547 13.882799 8.761374 2.554581 29.956104 5.148405 0.685052 0.000011 23.625494 0.000001 0.000000 0.000000 0.000000 8.199952 16.687633 -19.490217 0.941159 11.048137 31.535332 0.000000 0.000000 0.000000 4.844455 -11.372647 -16.730655 -1.248030 -8.029099 27.829479 
0.632106 -1.827149 -5.844803 -6.500343 10.646667 -6.611588 0.000000 0.000000 0.000000 0.610898 -4.191166 0.985249 1.577077 -0.569499 -0.219032 0.000000 0.000000 0.000000 1.579314 -0.568891 -0.207898 -0.158481 -1.250722 -6.682962 1.579314 -0.568891 -0.207898 -26.635332 -9.593507 4.288156 -22.588822 -19.207241 -20.715026 0.000010 -27.400859 -0.000009 1.579314 -0.568891 -0.207898 13.815047 9.142042 2.627458 32.964554 7.330523 3.280366 0.000002 23.488692 -0.000004 0.000000 0.000000 0.000000 5.300788 14.713625 -18.611158 0.484152 11.108397 30.899667 0.000000 0.000000 0.000000 1.844026 -12.616999 -19.992579 -0.668367 -5.711957 33.150298 
0.836575 -2.426796 -6.677376 -3.114530 9.220257 -6.895758 0.000000 0.000000 0.000000 -2.699135 -2.826844 2.940758 1.750301 -0.400709 -0.402400 0.000000 0.000000 0.000000 1.753692 -0.393553 -0.393440 -0.452725 -1.189565 -7.065027 1.753692 -0.393553 -0.393440 -26.779287 -9.441055 4.254715 -25.962278 -19.347668 -16.297642 0.000012 -33.615896 -0.000004 1.753692 -0.393553 -0.393440 13.740108 9.543877 2.699921 36.031179 9.848733 6.355678 0.000008 23.654877 -0.000003 0.000000 0.000000 0.000000 1.279549 12.205183 -17.882929 0.039914 11.168442 30.493104 0.000000 0.000000 0.000000 -1.636568 -13.486410 -23.901039 0.140925 -2.749126 38.914857 
0.935976 -2.921555 -7.584480 0.051949 7.480656 -7.144372 0.000000 0.000000 0.000000 -5.774143 -1.195435 4.775830 2.085376 -0.209510 -0.545853 0.000000 0.000000 0.000000 2.088166 -0.194737 -0.540187 -0.867132 -1.100677 -7.648594 2.088166 -0.194737 -0.540187 -27.278699 -9.148223 4.217417 -28.524465 -19.316999 -9.696906 -0.000005 -40.478720 -0.000007 2.088166 -0.194737 -0.540187 13.629802 9.943919 2.765958 39.065112 12.403091 9.257751 -0.000001 24.890545 -0.000010 0.000000 0.000000 0.000000 -2.498488 10.090840 -17.623754 -0.394178 11.286417 30.247137 0.000000 0.000000 0.000000 -4.051177 -13.400231 -27.725077 0.516370 -0.288646 43.385972 
1.018885 -3.089783 -8.621048 1.767432 5.932078 -7.241166 0.000000 0.000000 0.000000 -7.431430 0.213806 6.197956 2.381598 -0.045528 -0.628719 0.000000 0.000000 0.000000 2.382592 -0.024127 -0.626687 -1.299256 -1.006506 -8.336351 2.382592 -0.024127 -0.626687 -27.992563 -8.891630 4.218359 -30.137705 -19.001749 -1.582016 -0.000006 -47.459378 -0.000011 2.382592 -0.024127 -0.626687 13.595525 10.393614 2.854397 41.894828 14.542351 11.465524 -0.000010 27.890218 -0.000000 0.000000 0.000000 0.000000 -4.614960 8.860637 -17.881052 -0.817763 11.465778 29.673847 0.000000 0.000000 0.000000 -4.515029 -12.375485 -30.043220 -0.086180 0.988098 43.439544 
1.148753 -2.995972 -9.769050 1.823877 5.016599 -7.060549 0.000000 0.000000 0.000000 -7.378988 1.029724 7.140308 2.397070 0.054185 -0.668232 0.000000 0.000000 0.000000 2.396248 0.078439 -0.669117 -1.583464 -0.948806 -9.032462 2.396248 0.078439 -0.669117 -28.577856 -8.840774 4.273270 -31.003635 -18.328328 7.047247 -0.000008 -54.237907 -0.000002 2.396248 0.078439 -0.669117 13.821411 10.974437 3.008515 44.311902 15.924160 12.895797 -0.000004 32.830305 -0.000001 0.000000 0.000000 0.000000 -4.934281 8.510086 -18.671166 -1.057380 11.584090 28.919756 0.000000 0.000000 0.000000 -3.088180 -11.125354 -29.850225 -1.202982 1.056359 37.382593 
1.292428 -2.939705 -10.885040 1.161778 4.877346 -6.635330 0.000000 0.000000 0.000000 -6.369319 1.230629 7.658686 2.028154 0.086993 -0.698515 0.000000 0.000000 0.000000 2.026345 0.108336 -0.700866 -1.619043 -0.964132 -9.693979 2.026345 0.108336 -0.700866 -28.770797 -9.028817 4.361775 -31.306865 -17.466532 15.332429 0.000021 -60.723776 -0.000022 2.026345 0.108336 -0.700866 14.339061 11.670984 3.229017 46.269126 16.577801 13.995986 -0.000012 39.197865 -0.000024 0.000000 0.000000 0.000000 -4.501158 8.681769 -19.971015 -1.117834 11.612221 28.697442 0.000000 0.000000 0.000000 -0.993229 -10.567731 -27.754502 -1.858498 0.455503 26.593127 
1.387827 -3.100083 -11.799576 0.955923 5.292875 -6.044867 0.000000 0.000000 0.000000 -5.485783 1.080744 7.865030 1.376451 0.080633 -0.744029 0.000000 0.000000 0.000000 1.374485 0.093592 -0.746385 -1.457980 -1.061125 -10.329556 1.374485 0.093592 -0.746385 -28.606268 -9.313699 4.439965 -30.967252 -16.883126 22.933722 0.000003 -66.972935 -0.000007 1.374485 0.093592 -0.746385 14.912438 12.312062 3.446101 47.902314 16.930333 15.483666 -0.000002 46.092753 -0.000008 0.000000 0.000000 0.000000 -4.406866 8.827180 -21.491165 -1.350552 11.694145 29.065918 0.000000 0.000000 0.000000 0.314903 -11.031037 -26.085120 -1.895734 -0.142621 15.972337 
1.392883 -3.319100 -12.442360 1.811411 5.900083 -5.264785 0.000000 0.000000 0.000000 -5.499968 0.903388 7.909384 0.656754 0.068723 -0.805712 0.000000 0.000000 0.000000 0.654934 0.070277 -0.807281 -1.267490 -1.215527 -10.949637 0.654934 0.070277 -0.807281 -28.381194 -9.476053 4.468560 -29.736395 -17.099185 30.049113 0.000023 -73.017578 -0.000024 0.654934 0.070277 -0.807281 15.195279 12.667939 3.561309 49.361861 17.494845 17.875712 -0.000002 52.750801 -0.000007 0.000000 0.000000 0.000000 -5.227865 8.539360 -22.570982 -1.985779 11.841860 28.779139 0.000000 0.000000 0.000000 0.236411 -12.056672 -26.158903 -1.848147 -0.548730 9.170012 
1.321440 -3.418412 -12.830841 3.430335 6.508145 -4.302768 0.000000 0.000000 0.000000 -6.444124 0.849402 7.923180 0.050676 0.067408 -0.868492 0.000000 0.000000 0.000000 0.048899 0.057613 -0.869302 -1.205226 -1.387424 -11.515909 0.048899 0.057613 -0.869302 -28.414431 -9.380604 4.439164 -27.569892 -18.265861 37.098901 0.000091 -78.659150 -0.000101 0.048899 0.057613 -0.869302 15.020347 12.620454 3.525145 50.694473 18.444523 21.169336 -0.000013 58.783811 -0.000037 0.000000 0.000000 0.000000 -6.685397 7.769702 -22.908463 -3.010128 11.992752 27.174197 0.000000 0.000000 0.000000 -0.704320 -13.027856 -27.278982 -2.087153 -0.528835 6.106338 
1.240764 -3.324311 -12.998161 5.103206 7.200024 -3.311873 0.000000 0.000000 0.000000 -7.836453 0.852677 7.963123 -0.363418 0.069462 -0.923697 0.000000 0.000000 0.000000 -0.365154 0.050652 -0.924121 -1.317962 -1.545774 -11.940300 -0.365154 0.050652 -0.924121 -28.825689 -9.069820 4.380525 -24.908304 -19.891973 44.296137 0.000043 -83.367382 -0.000044 -0.365154 0.050652 -0.924121 14.532709 12.249710 3.375852 51.826815 19.488456 24.884768 -0.000040 63.914622 -0.000033 0.000000 0.000000 0.000000 -8.235479 6.762839 -22.533689 -4.114073 12.005647 24.448413 0.000000 0.000000 0.000000 -1.813929 -13.631652 -28.400763 -2.390344 0.562692 5.682032 
1.190462 -3.151474 -12.926887 6.257209 8.176342 -2.489736 0.000000 0.000000 0.000000 -9.073397 0.752038 8.013883 -0.581424 0.057150 -0.984237 0.000000 0.000000 0.000000 -0.582684 0.032753 -0.984455 -1.533716 -1.681531 -12.136690 -0.582684 0.032753 -0.984455 -29.492519 -8.723652 4.340244 -22.494812 -21.081066 51.315264 -0.000287 -86.403840 0.000287 -0.582684 0.032753 -0.984455 14.049685 11.769525 3.204845 52.631955 20.173113 28.411619 -0.000041 67.565905 -0.000035 0.000000 0.000000 0.000000 -9.444858 5.881187 -21.931681 -4.818461 11.856047 21.955581 0.000000 0.000000 0.000000 -2.689112 -13.877230 -29.560733 -2.187193 2.918475 8.329785 
